<svg width="19" height="18" viewBox="0 0 19 18" fill="none" xmlns="http://www.w3.org/2000/svg">
<g clip-path="url(#clip0_393_4975)">
<path d="M4.64844 5C4.3723 5 4.14844 4.77614 4.14844 4.5C4.14844 4.22386 4.3723 4 4.64844 4L4.64844 5ZM10.6484 3.5L11.002 3.85355L10.9185 3.93702L10.8066 3.97434L10.6484 3.5ZM7.64844 4.5L7.80655 4.97434L7.72958 5L7.64844 5L7.64844 4.5ZM10.2949 3.14645L12.2949 1.14645L13.002 1.85355L11.002 3.85355L10.2949 3.14645ZM4.64844 4L7.64844 4L7.64844 5L4.64844 5L4.64844 4ZM7.49032 4.02566L10.4903 3.02566L10.8066 3.97434L7.80655 4.97434L7.49032 4.02566Z" fill="#FF8B71"/>
<path d="M13.1484 13.5C13.1484 13.7761 13.3723 14 13.6484 14C13.9246 14 14.1484 13.7761 14.1484 13.5H13.1484ZM14.6484 7.5L14.2949 7.14645L14.2114 7.22991L14.1741 7.34189L14.6484 7.5ZM13.6484 10.5L13.1741 10.3419L13.1484 10.4189V10.5H13.6484ZM15.002 7.85355L17.002 5.85355L16.2949 5.14645L14.2949 7.14645L15.002 7.85355ZM14.1484 13.5V10.5H13.1484V13.5H14.1484ZM14.1228 10.6581L15.1228 7.65811L14.1741 7.34189L13.1741 10.3419L14.1228 10.6581Z" fill="#FF8B71"/>
<path d="M18.1487 4L14.1484 5L17.1484 8L18.1487 4Z" fill="#FF8B71"/>
<path d="M14.1487 0L10.1484 1L13.1484 4L14.1487 0Z" fill="#FF8B71"/>
<path fill-rule="evenodd" clip-rule="evenodd" d="M6.10891 16.9999C8.84851 16.9999 11.1484 14.7433 11.1484 11.9999C11.1484 11.46 11.3824 10.5695 11.6265 9.64062C12.0101 8.18055 12.4186 6.62584 11.9823 6.18947C11.5192 5.72649 9.90874 6.14879 8.42896 6.53681C7.52128 6.77482 6.66278 6.99994 6.14844 6.99994C3.40884 6.99994 1.14844 9.28916 1.14844 12.0325C1.14844 14.7759 3.36932 16.9999 6.10891 16.9999ZM5.26386 10.2063C5.539 10.0706 5.84166 10 6.14844 10V9C5.68827 9 5.23428 9.10586 4.82157 9.30938C4.40886 9.51291 4.04851 9.80864 3.76838 10.1737C3.48825 10.5388 3.29586 10.9634 3.20608 11.4147C3.11631 11.8661 3.13156 12.332 3.25066 12.7765L4.21659 12.5176C4.13719 12.2213 4.12702 11.9107 4.18687 11.6098C4.24672 11.3089 4.37498 11.0259 4.56173 10.7825C4.74848 10.5391 4.98872 10.3419 5.26386 10.2063Z" fill="#FF8B71"/>
</g>
<defs>
<clipPath id="clip0_393_4975">
<rect width="18" height="18" fill="white" transform="translate(0.148438)"/>
</clipPath>
</defs>
</svg>
