<svg width="12" height="12" viewBox="0 0 12 12" fill="none" xmlns="http://www.w3.org/2000/svg">
<path d="M10 0C11.1046 0 12 0.89543 12 2V4H11V2C11 1.48716 10.614 1.06449 10.1166 1.00673L10 1H8V0H10Z" fill="#37A7FF"/>
<path d="M11 8H12V10C12 11.1046 11.1046 12 10 12H8V11H10C10.5128 11 10.9355 10.614 10.9933 10.1166L11 10V8Z" fill="#37A7FF"/>
<path d="M1 2V4H0V2C0 0.89543 0.89543 0 2 0H4V1H2C1.48716 1 1.06449 1.38604 1.00673 1.88338L1 2Z" fill="#37A7FF"/>
<path d="M0 10V8H1V10C1 10.5128 1.38604 10.9355 1.88338 10.9933L2 11H4V12H2C0.89543 12 0 11.1046 0 10Z" fill="#37A7FF"/>
<path d="M5 4C4.44772 4 4 4.44772 4 5V7C4 7.55228 4.44772 8 5 8H7C7.55228 8 8 7.55228 8 7V5C8 4.44772 7.55228 4 7 4H5Z" fill="#37A7FF"/>
</svg>
