<svg width="18" height="18" viewBox="0 0 18 18" fill="none" xmlns="http://www.w3.org/2000/svg">
<path d="M11 13V15C11 16.1046 9.88071 17 8.5 17C7.11929 17 6 16.1046 6 15V13H11Z" fill="#B0B0B0"/>
<path fill-rule="evenodd" clip-rule="evenodd" d="M11 12.3998C12.7808 11.4894 14 9.63685 14 7.49951C14 4.46195 11.5376 1.99951 8.5 1.99951C5.46243 1.99951 3 4.46195 3 7.49951C3 9.63685 4.21916 11.4894 6 12.3998V12.9995C6 14.0144 6.94495 14.0085 8.1694 14.0009C8.27757 14.0002 8.38792 13.9995 8.5 13.9995C8.61208 13.9995 8.72243 14.0002 8.8306 14.0009C10.055 14.0085 11 14.0144 11 12.9995V12.3998ZM9.01875 4.36088C9.09366 4.09509 9.36985 3.94036 9.63564 4.01527C10.9988 4.39946 12 5.89659 12 7.49951C12 7.77565 11.7761 7.99951 11.5 7.99951C11.2239 7.99951 11 7.77565 11 7.49951C11 6.32254 10.2717 5.2335 9.36436 4.97777C9.09857 4.90286 8.94384 4.62667 9.01875 4.36088Z" fill="#FFE4A7"/>
<g opacity="0.5">
<path d="M14.5104 1.48971C14.3151 1.29445 13.9986 1.29445 13.8033 1.48971L13.0962 2.19682C12.9009 2.39208 12.9009 2.70866 13.0962 2.90392C13.2915 3.09918 13.608 3.09918 13.8033 2.90392L14.5104 2.19682C14.7057 2.00155 14.7057 1.68497 14.5104 1.48971Z" fill="#FFE4A7"/>
<path d="M3.90381 12.0963C3.70854 11.901 3.39196 11.901 3.1967 12.0963L2.48959 12.8034C2.29433 12.9987 2.29433 13.3153 2.48959 13.5105C2.68485 13.7058 3.00144 13.7058 3.1967 13.5105L3.90381 12.8034C4.09907 12.6082 4.09907 12.2916 3.90381 12.0963Z" fill="#FFE4A7"/>
<path d="M16.5 7.00012C16.7761 7.00012 17 7.22397 17 7.50012C17 7.77626 16.7761 8.00012 16.5 8.00012H15.5C15.2239 8.00012 15 7.77626 15 7.50012C15 7.22397 15.2239 7.00012 15.5 7.00012H16.5Z" fill="#FFE4A7"/>
<path d="M2 7.50012C2 7.22397 1.77614 7.00012 1.5 7.00012H0.5C0.223858 7.00012 0 7.22397 0 7.50012C0 7.77626 0.223858 8.00012 0.5 8.00012H1.5C1.77614 8.00012 2 7.77626 2 7.50012Z" fill="#FFE4A7"/>
<path d="M3.1967 1.48971C3.00144 1.29445 2.68485 1.29445 2.48959 1.48971C2.29433 1.68497 2.29433 2.00155 2.48959 2.19682L3.1967 2.90392C3.39196 3.09918 3.70854 3.09918 3.90381 2.90392C4.09907 2.70866 4.09907 2.39208 3.90381 2.19682L3.1967 1.48971Z" fill="#FFE4A7"/>
<path d="M13.0962 12.0963C13.2915 11.901 13.608 11.901 13.8033 12.0963L14.5104 12.8034C14.7057 12.9987 14.7057 13.3153 14.5104 13.5105C14.3151 13.7058 13.9986 13.7058 13.8033 13.5105L13.0962 12.8034C12.9009 12.6082 12.9009 12.2916 13.0962 12.0963Z" fill="#FFE4A7"/>
<path d="M16.3811 4.31596C16.2776 4.05993 15.9862 3.93623 15.7302 4.03967L14.803 4.41428C14.5469 4.51772 14.4233 4.80914 14.5267 5.06517C14.6301 5.32121 14.9216 5.44491 15.1776 5.34146L16.1048 4.96686C16.3608 4.86341 16.4845 4.57199 16.3811 4.31596Z" fill="#FFE4A7"/>
<path d="M2.47331 9.93506C2.36986 9.67902 2.07844 9.55533 1.82241 9.65877L0.895226 10.0334C0.639192 10.1368 0.515493 10.4282 0.618937 10.6843C0.722382 10.9403 1.0138 11.064 1.26983 10.9606L2.19702 10.586C2.45305 10.4825 2.57675 10.1911 2.47331 9.93506Z" fill="#FFE4A7"/>
<path d="M1.26983 4.03967C1.0138 3.93623 0.722382 4.05993 0.618937 4.31596C0.515492 4.57199 0.639191 4.86341 0.895226 4.96686L1.82241 5.34146C2.07844 5.44491 2.36986 5.32121 2.4733 5.06517C2.57675 4.80914 2.45305 4.51772 2.19702 4.41428L1.26983 4.03967Z" fill="#FFE4A7"/>
<path d="M15.1776 9.65877C14.9216 9.55533 14.6301 9.67902 14.5267 9.93506C14.4233 10.1911 14.5469 10.4825 14.803 10.586L15.7302 10.9606C15.9862 11.064 16.2776 10.9403 16.3811 10.6843C16.4845 10.4282 16.3608 10.1368 16.1048 10.0334L15.1776 9.65877Z" fill="#FFE4A7"/>
</g>
</svg>
