<svg width="14" height="14" viewBox="0 0 14 14" fill="none" xmlns="http://www.w3.org/2000/svg">
<path d="M11.5 3.25C11.5 4.49264 10.4926 5.5 9.25 5.5C8.00736 5.5 7 4.49264 7 3.25C7 2.00736 8.00736 1 9.25 1C10.4926 1 11.5 2.00736 11.5 3.25Z" fill="#899297"/>
<circle cx="2.125" cy="3.625" r="1.125" fill="#899297"/>
<circle cx="12.25" cy="7" r="0.75" fill="#899297"/>
<circle cx="5.125" cy="6.625" r="1.125" fill="#899297"/>
<path d="M1 8.5C1.19891 8.5 1.38968 8.42098 1.53033 8.28033C1.67098 8.13968 1.75 7.94891 1.75 7.75C1.75 7.55109 1.67098 7.36032 1.53033 7.21967C1.38968 7.07902 1.19891 7 1 7L1 7.75L1 8.5Z" fill="#899297"/>
<path d="M12.7993 13C12.927 12.7794 13 12.5232 13 12.25C13 11.4216 12.3284 10.75 11.5 10.75C11.4911 10.75 11.4823 10.7501 11.4734 10.7502C11.2916 9.47801 10.1975 8.5 8.875 8.5C7.82014 8.5 6.9106 9.12221 6.49338 10.0196C6.41417 10.0067 6.33287 10 6.25 10C6.13105 10 6.01533 10.0138 5.90438 10.04C5.56458 9.56191 5.00622 9.25 4.375 9.25C3.46773 9.25 2.71096 9.89439 2.53741 10.7505C2.52498 10.7502 2.51251 10.75 2.5 10.75C1.67157 10.75 1 11.4216 1 12.25C1 12.5232 1.07305 12.7794 1.20067 13H12.7993Z" fill="#899297"/>
</svg>
